<svg width="19" height="17" viewBox="0 0 19 17" fill="none" xmlns="http://www.w3.org/2000/svg">
<path d="M18.4627 9.87649L17.4808 2.02195C17.4264 1.58663 17.2148 1.18618 16.886 0.895857C16.5571 0.605529 16.1334 0.445312 15.6947 0.445313H1.62202C1.31822 0.445313 1.02687 0.565994 0.812058 0.780808C0.597244 0.995623 0.476563 1.28697 0.476562 1.59077V8.79077C0.476562 9.09456 0.597244 9.38591 0.812058 9.60072C1.02687 9.81554 1.31822 9.93622 1.62202 9.93622H5.24574L8.38265 16.21C8.42341 16.2917 8.48611 16.3603 8.56372 16.4083C8.64133 16.4563 8.73077 16.4817 8.82201 16.4817C9.6466 16.4817 10.4374 16.1541 11.0205 15.571C11.6035 14.988 11.9311 14.1972 11.9311 13.3726V11.8999H16.6766C16.9318 11.8999 17.1841 11.8456 17.4168 11.7406C17.6494 11.6357 17.8571 11.4824 18.026 11.2911C18.1949 11.0997 18.3212 10.8746 18.3965 10.6307C18.4718 10.3869 18.4943 10.1298 18.4627 9.87649ZM5.05838 8.9544H1.62202C1.57862 8.9544 1.537 8.93716 1.50631 8.90647C1.47562 8.87579 1.45838 8.83416 1.45838 8.79077V1.59077C1.45838 1.54737 1.47562 1.50575 1.50631 1.47506C1.537 1.44437 1.57862 1.42713 1.62202 1.42713H5.05838V8.9544ZM17.2902 10.6415C17.2137 10.7289 17.1194 10.7989 17.0135 10.8466C16.9076 10.8943 16.7927 10.9187 16.6766 10.918H11.4402C11.31 10.918 11.1851 10.9698 11.0931 11.0618C11.001 11.1539 10.9493 11.2788 10.9493 11.4089V13.3726C10.9492 13.886 10.7635 14.3821 10.4264 14.7693C10.0892 15.1565 9.62345 15.4087 9.11492 15.4794L6.0402 9.32913V1.42713H15.6947C15.8941 1.42719 16.0866 1.50005 16.2361 1.63203C16.3855 1.764 16.4817 1.94601 16.5064 2.14386L17.4882 9.9984C17.5033 10.1135 17.4934 10.2305 17.4592 10.3415C17.425 10.4525 17.3674 10.5548 17.2902 10.6415Z" fill="#5F5F5F"/>
</svg>
