<svg width="50" height="50" viewBox="0 0 50 50" fill="none" xmlns="http://www.w3.org/2000/svg">
<rect width="50" height="50" fill="#3282B8"/>
<path d="M19.1667 18.0844C19.1664 18.6369 18.9466 19.1667 18.5557 19.5572C18.1648 19.9477 17.6348 20.1669 17.0823 20.1667C16.5298 20.1664 16 19.9466 15.6095 19.5557C15.219 19.1648 14.9997 18.6348 15 18.0823C15.0003 17.5298 15.22 17 15.6109 16.6095C16.0018 16.219 16.5318 15.9997 17.0844 16C17.6369 16.0003 18.1667 16.22 18.5572 16.6109C18.9477 17.0018 19.1669 17.5318 19.1667 18.0844ZM19.2292 21.7094H15.0625V34.751H19.2292V21.7094ZM25.8125 21.7094H21.6667V34.751H25.7708V27.9073C25.7708 24.0948 30.7396 23.7406 30.7396 27.9073V34.751H34.8542V26.4906C34.8542 20.0635 27.5 20.3031 25.7708 23.4594L25.8125 21.7094Z" fill="white"/>
</svg>
