<svg width="82" height="81" viewBox="0 0 82 81" fill="none" xmlns="http://www.w3.org/2000/svg">
<path d="M79.8499 1.97372C77.4449 -0.415025 73.5599 -0.415025 71.1549 1.97372L40.9999 31.8637L10.8449 1.91247C8.43994 -0.476277 4.55494 -0.476277 2.14994 1.91247C-0.255059 4.30122 -0.255059 8.15998 2.14994 10.5487L32.3049 40.5L2.14994 70.4512C-0.255059 72.84 -0.255059 76.6987 2.14994 79.0875C4.55494 81.4762 8.43994 81.4762 10.8449 79.0875L40.9999 49.1362L71.1549 79.0875C73.5599 81.4762 77.4449 81.4762 79.8499 79.0875C82.2549 76.6987 82.2549 72.84 79.8499 70.4512L49.6949 40.5L79.8499 10.5487C82.1933 8.22123 82.1933 4.30122 79.8499 1.97372Z" fill="black"/>
</svg>
