<svg width="32" height="32" viewBox="0 0 32 32" fill="none" xmlns="http://www.w3.org/2000/svg">
<path d="M28.7358 13.4735L28.6549 13.5441L23.0174 18.4641L22.5658 18.8581L22.7005 19.4421L24.3892 26.7671L24.3898 26.7698C24.4345 26.9612 24.4218 27.1616 24.3532 27.3459C24.2846 27.5301 24.1632 27.6901 24.0042 27.8057C23.8452 27.9214 23.6557 27.9876 23.4592 27.9961C23.2632 28.0046 23.0691 27.9552 22.9009 27.8542C22.9006 27.8539 22.9002 27.8537 22.8998 27.8535L16.5135 23.98L15.9944 23.6651L15.4755 23.9805L9.10376 27.8535C9.10326 27.8538 9.10276 27.8541 9.10226 27.8544C8.93422 27.9553 8.74022 28.0046 8.54437 27.9961C8.34794 27.9876 8.15838 27.9214 7.99939 27.8057C7.84039 27.6901 7.71901 27.5301 7.65042 27.3459C7.58183 27.1616 7.56908 26.9612 7.61377 26.7698L7.61439 26.767L9.30064 19.4496L9.43511 18.866L8.9842 18.472L3.34545 13.5445L3.34546 13.5445L3.34054 13.5402C3.19142 13.4116 3.08359 13.2418 3.03058 13.0522C2.97756 12.8626 2.98172 12.6615 3.04252 12.4742C3.10333 12.2869 3.21808 12.1217 3.37239 11.9994C3.5267 11.877 3.71369 11.803 3.90992 11.7865L3.91247 11.7863L11.345 11.1425L11.9472 11.0904L12.1809 10.5329L15.0822 3.61289L15.0828 3.61132C15.1583 3.43034 15.2857 3.27575 15.4489 3.16701C15.6121 3.05827 15.8038 3.00024 15.9999 3.00024C16.196 3.00024 16.3878 3.05827 16.551 3.16701C16.7142 3.27574 16.8415 3.43034 16.917 3.61132L16.9181 3.61388L19.8281 10.5339L20.0621 11.0904L20.6636 11.1425L28.0936 11.7863L28.0962 11.7865C28.2924 11.803 28.4794 11.877 28.6337 11.9994C28.788 12.1217 28.9028 12.2869 28.9636 12.4742C29.0244 12.6615 29.0285 12.8626 28.9755 13.0522C28.9312 13.2106 28.8487 13.3552 28.7358 13.4735Z" fill="#F3C141" stroke="#E9B121" stroke-width="2"/>
</svg>
