<svg width="50" height="50" viewBox="0 0 50 50" fill="none" xmlns="http://www.w3.org/2000/svg">
<rect width="50" height="50" fill="#3282B8"/>
<path d="M35.7917 18.0833C34.9896 18.4479 34.125 18.6875 33.2292 18.8021C34.1458 18.25 34.8542 17.375 35.1875 16.3229C34.3229 16.8437 33.3646 17.2083 32.3542 17.4167C31.5312 16.5208 30.375 16 29.0625 16C26.6146 16 24.6146 18 24.6146 20.4688C24.6146 20.8229 24.6562 21.1667 24.7292 21.4896C21.0208 21.3021 17.7187 19.5208 15.5208 16.8229C15.1354 17.4792 14.9167 18.25 14.9167 19.0625C14.9167 20.6146 15.6979 21.9896 16.9062 22.7708C16.1667 22.7708 15.4792 22.5625 14.875 22.25V22.2812C14.875 24.4479 16.4167 26.2604 18.4583 26.6667C17.8028 26.8461 17.1147 26.871 16.4479 26.7396C16.7308 27.6276 17.2849 28.4046 18.0323 28.9614C18.7797 29.5182 19.6828 29.8268 20.6146 29.8438C19.035 31.0942 17.0771 31.7701 15.0625 31.7604C14.7083 31.7604 14.3542 31.7396 14 31.6979C15.9792 32.9688 18.3333 33.7083 20.8542 33.7083C29.0625 33.7083 33.5729 26.8958 33.5729 20.9896C33.5729 20.7917 33.5729 20.6042 33.5625 20.4062C34.4375 19.7812 35.1875 18.9896 35.7917 18.0833Z" fill="white"/>
</svg>
