<svg width="19" height="17" viewBox="0 0 19 17" fill="none" xmlns="http://www.w3.org/2000/svg">
<path d="M18.0714 5.68062C17.9021 5.48882 17.6939 5.33522 17.4607 5.23C17.2275 5.12477 16.9746 5.07034 16.7188 5.07031H11.9609V3.59375C11.9609 2.76702 11.6325 1.97415 11.0479 1.38957C10.4633 0.80498 9.67048 0.476563 8.84375 0.476563C8.75227 0.476535 8.66259 0.502004 8.58478 0.550111C8.50697 0.598217 8.4441 0.667058 8.40324 0.748906L5.25816 7.03906H1.625C1.32042 7.03906 1.02831 7.16006 0.812932 7.37543C0.597558 7.59081 0.476563 7.88292 0.476562 8.1875V15.4062C0.476562 15.7108 0.597558 16.0029 0.812932 16.2183C1.02831 16.4337 1.32042 16.5547 1.625 16.5547H15.7344C16.1742 16.5547 16.5989 16.3941 16.9287 16.103C17.2584 15.8119 17.4705 15.4104 17.5251 14.9739L18.5095 7.09895C18.5412 6.84499 18.5186 6.58719 18.443 6.34266C18.3675 6.09813 18.2409 5.87246 18.0714 5.68062ZM1.46094 15.4062V8.1875C1.46094 8.14399 1.47822 8.10226 1.50899 8.07149C1.53976 8.04072 1.58149 8.02344 1.625 8.02344H5.07031V15.5703H1.625C1.58149 15.5703 1.53976 15.553 1.50899 15.5223C1.47822 15.4915 1.46094 15.4498 1.46094 15.4062ZM17.5325 6.97672L16.5481 14.8517C16.5233 15.0501 16.427 15.2326 16.2771 15.3649C16.1273 15.4972 15.9343 15.5703 15.7344 15.5703H6.05469V7.64773L9.13742 1.48145C9.64727 1.55232 10.1143 1.8052 10.4523 2.19342C10.7903 2.58163 10.9765 3.079 10.9766 3.59375V5.5625C10.9766 5.69304 11.0284 5.81823 11.1207 5.91053C11.213 6.00283 11.3382 6.05469 11.4688 6.05469H16.7188C16.835 6.05472 16.95 6.07948 17.056 6.12732C17.162 6.17517 17.2566 6.245 17.3336 6.33219C17.4105 6.41938 17.468 6.52194 17.5023 6.63306C17.5366 6.74418 17.5469 6.86132 17.5325 6.97672Z" fill="#5F5F5F"/>
</svg>
