<svg width="37" height="37" viewBox="0 0 37 37" fill="none" xmlns="http://www.w3.org/2000/svg">
<path d="M11.0959 29.5494C9.06164 29.5494 7.41575 31.2115 7.41575 33.243C7.41575 35.2746 9.06164 36.9367 11.0959 36.9367C13.1301 36.9367 14.7945 35.2746 14.7945 33.243C14.7945 31.2115 13.1301 29.5494 11.0959 29.5494ZM0 1.84684C0 2.8626 0.832191 3.69367 1.84931 3.69367H3.69863L10.3562 17.7112L7.85958 22.2174C6.50958 24.6922 8.28492 27.7025 11.0959 27.7025H31.4383C32.4554 27.7025 33.2876 26.8715 33.2876 25.8557C33.2876 24.8399 32.4554 24.0089 31.4383 24.0089H11.0959L13.1301 20.3152H26.9075C28.2945 20.3152 29.515 19.558 30.1438 18.413L36.7643 6.42699C37.4486 5.20808 36.5609 3.69367 35.1554 3.69367H7.78561L6.54657 1.0527C6.25068 0.406304 5.58493 0 4.88219 0H1.84931C0.832191 0 0 0.831076 0 1.84684ZM29.589 29.5494C27.5548 29.5494 25.9089 31.2115 25.9089 33.243C25.9089 35.2746 27.5548 36.9367 29.589 36.9367C31.6233 36.9367 33.2876 35.2746 33.2876 33.243C33.2876 31.2115 31.6233 29.5494 29.589 29.5494Z" fill="#000033"/>
</svg>
