<svg width="20" height="22" viewBox="0 0 20 22" fill="none" xmlns="http://www.w3.org/2000/svg">
<path opacity="0.5" d="M14.6651 13.7146H13.7383L13.4098 13.378C14.8176 11.6326 15.545 9.25139 15.1461 6.72057C14.5947 3.2547 11.873 0.486998 8.58819 0.0631156C3.62577 -0.585175 -0.550646 3.85312 0.0593914 9.12672C0.458262 12.6175 3.06265 15.5099 6.32401 16.0958C8.7055 16.5197 10.9462 15.7468 12.5886 14.2507L12.9054 14.5998V15.5847L17.8913 20.8832C18.3723 21.3944 19.1583 21.3944 19.6393 20.8832C20.1202 20.3721 20.1202 19.5368 19.6393 19.0256L14.6651 13.7146ZM7.62621 13.7146C4.70506 13.7146 2.34703 11.2087 2.34703 8.10442C2.34703 5.0001 4.70506 2.49421 7.62621 2.49421C10.5473 2.49421 12.9054 5.0001 12.9054 8.10442C12.9054 11.2087 10.5473 13.7146 7.62621 13.7146Z" fill="black"/>
</svg>
