<svg width="32" height="32" viewBox="0 0 32 32" fill="none" xmlns="http://www.w3.org/2000/svg">
<path d="M11.2 0C5.03336 0 0 5.03336 0 11.2C0 17.3666 5.03336 22.4 11.2 22.4C13.9968 22.4 16.552 21.3568 18.5188 19.65L19.2 20.3313V22.4L28.8 32L32 28.8L22.4 19.2H20.3313L19.65 18.5188C21.3568 16.552 22.4 13.9968 22.4 11.2C22.4 5.03336 17.3666 0 11.2 0ZM11.2 3.2C15.6372 3.2 19.2 6.76277 19.2 11.2C19.2 15.6372 15.6372 19.2 11.2 19.2C6.76277 19.2 3.2 15.6372 3.2 11.2C3.2 6.76277 6.76277 3.2 11.2 3.2Z" fill="#000033"/>
</svg>
