<svg width="38" height="37" viewBox="0 0 38 37" fill="none" xmlns="http://www.w3.org/2000/svg">
<path d="M18.7119 0C8.38294 0 0 8.27382 0 18.4684C0 28.6629 8.38294 36.9367 18.7119 36.9367C29.0409 36.9367 37.4238 28.6629 37.4238 18.4684C37.4238 8.27382 29.0409 0 18.7119 0ZM18.7119 7.38734C22.3233 7.38734 25.2611 10.2869 25.2611 13.8513C25.2611 17.4157 22.3233 20.3152 18.7119 20.3152C15.1005 20.3152 12.1627 17.4157 12.1627 13.8513C12.1627 10.2869 15.1005 7.38734 18.7119 7.38734ZM18.7119 33.243C14.9134 33.243 10.4225 31.7286 7.2228 27.9242C10.3851 25.4863 14.3707 24.0089 18.7119 24.0089C23.0531 24.0089 27.0387 25.4863 30.201 27.9242C27.0013 31.7286 22.5104 33.243 18.7119 33.243Z" fill="#000033"/>
</svg>
