<svg width="20" height="15" viewBox="0 0 20 15" fill="none" xmlns="http://www.w3.org/2000/svg">
<path d="M11.1621 2.56732C10.7806 2.53268 10.393 2.51284 10 2.5079C8.28292 2.51429 6.50295 2.86483 4.81812 3.53653C3.56715 4.05579 2.34857 4.78887 1.29028 5.69313C0.770533 6.15473 0.107183 6.82311 0 7.53623C0.0126667 8.15397 0.80255 8.91643 1.29028 9.37935C2.28267 10.2481 3.46952 10.9602 4.81812 11.536C4.86395 11.5546 4.90995 11.5731 4.95605 11.5913L3.70485 13.4251L5.40493 14.2684L14.5952 0.839398L12.9588 0L11.1621 2.56732ZM15.0427 3.48325L13.7939 5.2997C14.3684 5.92611 14.7095 6.69859 14.7095 7.53623C14.7095 9.62405 12.6008 11.3167 9.99877 11.3167C9.88628 11.3167 9.77727 11.3065 9.66673 11.3003L8.84032 12.501C9.22145 12.5353 9.60682 12.5603 9.99998 12.5646C11.7187 12.5581 13.4977 12.2035 15.1807 11.536C16.4316 11.0167 17.6514 10.2836 18.7097 9.37935C19.2295 8.91776 19.8928 8.24937 20 7.53623C19.9873 6.9185 19.1974 6.15603 18.7097 5.69311C17.7173 4.82437 16.5293 4.11228 15.1807 3.5365C15.1351 3.51798 15.0885 3.50132 15.0427 3.48325ZM9.99878 3.75578C10.1129 3.75578 10.2261 3.75961 10.3381 3.76601L9.37012 5.17267C8.01155 5.40384 6.99218 6.37397 6.99218 7.53522C6.99218 7.82693 7.0562 8.1062 7.17407 8.36506C7.1742 8.36536 7.17393 8.3658 7.17407 8.3661L6.2036 9.77685C5.62775 9.14987 5.28807 8.37484 5.28807 7.53621C5.28808 5.44842 7.3968 3.75576 9.99878 3.75578ZM12.8149 6.72174L10.6336 9.89365C11.9848 9.65814 12.9968 8.69243 12.9968 7.53522C12.9968 7.24883 12.9287 6.97655 12.8149 6.72174Z" fill="#3282B8"/>
</svg>
