<svg width="70" height="70" viewBox="0 0 70 70" fill="none" xmlns="http://www.w3.org/2000/svg">
<circle cx="35" cy="35" r="35" fill="#000033"/>
<path d="M35 36.25C34.4292 36.2438 33.87 36.4009 33.3977 36.7003C32.9254 36.9996 32.5628 37.4269 32.3585 37.9244C32.1543 38.422 32.1182 38.966 32.2553 39.4832C32.3923 40.0005 32.6958 40.4661 33.125 40.8175V43.25C33.125 43.7141 33.3225 44.1593 33.6742 44.4874C34.0258 44.8156 34.5027 45 35 45C35.4973 45 35.9742 44.8156 36.3258 44.4874C36.6775 44.1593 36.875 43.7141 36.875 43.25V40.8175C37.3042 40.4661 37.6077 40.0005 37.7447 39.4832C37.8818 38.966 37.8457 38.422 37.6415 37.9244C37.4372 37.4269 37.0746 36.9996 36.6023 36.7003C36.13 36.4009 35.5708 36.2438 35 36.25ZM44.375 29.25V25.75C44.375 23.4294 43.3873 21.2038 41.6291 19.5628C39.871 17.9219 37.4864 17 35 17C32.5136 17 30.129 17.9219 28.3709 19.5628C26.6127 21.2038 25.625 23.4294 25.625 25.75V29.25C24.1332 29.25 22.7024 29.8031 21.6475 30.7877C20.5926 31.7723 20 33.1076 20 34.5V46.75C20 48.1424 20.5926 49.4777 21.6475 50.4623C22.7024 51.4469 24.1332 52 25.625 52H44.375C45.8668 52 47.2976 51.4469 48.3525 50.4623C49.4074 49.4777 50 48.1424 50 46.75V34.5C50 33.1076 49.4074 31.7723 48.3525 30.7877C47.2976 29.8031 45.8668 29.25 44.375 29.25ZM29.375 25.75C29.375 24.3576 29.9676 23.0223 31.0225 22.0377C32.0774 21.0531 33.5082 20.5 35 20.5C36.4918 20.5 37.9226 21.0531 38.9775 22.0377C40.0324 23.0223 40.625 24.3576 40.625 25.75V29.25H29.375V25.75ZM46.25 46.75C46.25 47.2141 46.0525 47.6593 45.7008 47.9874C45.3492 48.3156 44.8723 48.5 44.375 48.5H25.625C25.1277 48.5 24.6508 48.3156 24.2992 47.9874C23.9475 47.6593 23.75 47.2141 23.75 46.75V34.5C23.75 34.0359 23.9475 33.5908 24.2992 33.2626C24.6508 32.9344 25.1277 32.75 25.625 32.75H44.375C44.8723 32.75 45.3492 32.9344 45.7008 33.2626C46.0525 33.5908 46.25 34.0359 46.25 34.5V46.75Z" fill="#3282B8"/>
</svg>
