<svg width="50" height="50" viewBox="0 0 50 50" fill="none" xmlns="http://www.w3.org/2000/svg">
<rect width="50" height="50" fill="#3282B8"/>
<path d="M35.125 24.4792H25.5729V27.3229H32.3542C32.0104 31.2917 28.7083 32.9896 25.5833 32.9896C21.5937 32.9896 18.0938 29.8437 18.0938 25.4167C18.0938 21.1458 21.4271 17.8438 25.5938 17.8438C28.8125 17.8438 30.6979 19.8958 30.6979 19.8958L32.6771 17.8333C32.6771 17.8333 30.1354 15 25.4896 15C19.5729 15 15 20 15 25.4167C15 30.6771 19.3021 35.8333 25.6458 35.8333C31.2188 35.8333 35.2812 32.0104 35.2812 26.3646C35.2812 25.1667 35.125 24.4792 35.125 24.4792Z" fill="white"/>
</svg>
