<svg width="442" height="480" viewBox="0 0 442 480" fill="none" xmlns="http://www.w3.org/2000/svg">
<g clip-path="url(#clip0_1_742)">
<path d="M337.025 114.2C329.842 106.4 318.24 106.4 311.057 114.2L221 211.8L130.943 114C123.76 106.2 112.158 106.2 104.975 114C97.7925 121.8 97.7925 134.4 104.975 142.2L195.033 240L104.975 337.8C97.7925 345.6 97.7925 358.2 104.975 366C112.158 373.8 123.76 373.8 130.943 366L221 268.2L311.057 366C318.24 373.8 329.842 373.8 337.025 366C344.207 358.2 344.207 345.6 337.025 337.8L246.967 240L337.025 142.2C344.023 134.6 344.023 121.8 337.025 114.2Z" fill="white"/>
</g>
<defs>
<clipPath id="clip0_1_742">
<rect width="442" height="480" fill="white"/>
</clipPath>
</defs>
</svg>
